<?xml version="1.0" standalone="no"?>
<!DOCTYPE svg PUBLIC "-//W3C//DTD SVG 20010904//EN"
 "http://www.w3.org/TR/2001/REC-SVG-20010904/DTD/svg10.dtd">
<svg version="1.0" xmlns="http://www.w3.org/2000/svg"
 width="225.000000pt" height="225.000000pt" viewBox="0 0 225.000000 225.000000"
 preserveAspectRatio="xMidYMid meet">

<g transform="translate(0.000000,225.000000) scale(0.100000,-0.100000)"
fill="#000000" stroke="none">
<path d="M288 2221 l-33 -29 -3 -1054 c-1 -579 0 -1063 3 -1076 3 -12 20 -31
38 -42 31 -19 54 -20 832 -20 778 0 801 1 832 20 18 11 35 30 38 42 3 13 4
400 3 861 l-3 837 -245 245 -246 245 -592 0 -592 0 -32 -29z m1172 -277 c0
-212 -1 -226 -17 -218 -10 4 -36 8 -58 8 -36 1 -40 -1 -40 -24 0 -22 19 -39
60 -53 6 -2 12 -57 15 -123 4 -101 8 -124 26 -149 l22 -29 -22 -29 c-18 -24
-22 -47 -26 -145 l-5 -117 -37 -18 c-39 -18 -49 -42 -26 -65 16 -16 43 -15 78
3 47 24 60 61 60 170 0 119 21 164 76 165 23 0 44 18 44 36 0 20 -30 44 -54
44 -47 0 -61 32 -66 159 -3 64 -10 124 -14 134 -8 16 6 17 218 17 l226 0 0
-485 0 -485 -795 0 -795 0 0 715 0 715 565 0 565 0 0 -226z m240 1 l165 -165
-168 0 -167 0 0 165 c0 91 1 165 3 165 1 0 76 -74 167 -165z m220 -1575 l0
-290 -795 0 -795 0 0 290 0 290 795 0 795 0 0 -290z"/>
<path d="M755 1707 l-35 -35 0 -110 c0 -125 -13 -155 -74 -166 -23 -4 -37 -14
-41 -27 -8 -24 10 -49 35 -49 61 0 80 -40 80 -165 0 -109 13 -146 60 -170 35
-18 62 -19 78 -3 22 22 13 48 -22 63 -18 8 -36 22 -40 30 -3 9 -6 61 -6 114 0
86 -3 102 -23 133 l-24 34 24 34 c20 31 23 46 23 140 0 58 4 110 8 116 4 6 21
17 37 25 21 10 30 21 30 39 0 22 -5 25 -38 28 -32 3 -43 -2 -72 -31z"/>
<path d="M1067 1532 c-35 -38 -10 -92 42 -92 15 0 32 5 39 12 17 17 15 64 -4
82 -21 21 -57 20 -77 -2z"/>
<path d="M1081 1266 c-8 -9 -11 -43 -9 -93 l3 -78 30 0 30 0 3 84 c2 61 -1 87
-10 92 -19 13 -34 11 -47 -5z"/>
<path d="M638 390 c-2 -130 -6 -163 -18 -170 -21 -13 -87 -12 -112 1 -21 11
-37 -1 -38 -27 0 -19 61 -38 118 -38 48 0 57 3 83 32 l29 32 0 165 0 165 -29
0 -30 0 -3 -160z"/>
<path d="M860 543 c-29 -11 -60 -47 -66 -77 -9 -48 11 -84 62 -114 83 -49 108
-75 100 -106 -9 -38 -48 -51 -105 -37 -43 12 -60 5 -61 -21 0 -12 33 -26 70
-28 70 -5 92 0 121 29 23 24 29 38 29 73 0 52 -20 77 -83 109 -81 41 -96 70
-56 110 17 17 30 20 65 16 37 -4 44 -2 50 16 4 12 1 23 -7 28 -15 9 -95 11
-119 2z"/>
<path d="M1161 528 c-63 -43 -76 -70 -79 -166 -3 -110 18 -154 90 -190 65 -32
119 -24 170 27 60 61 75 176 33 266 -37 78 -146 110 -214 63z m120 -38 c42
-23 65 -110 49 -187 -14 -63 -47 -97 -95 -97 -67 0 -100 61 -93 171 4 59 8 69
36 94 33 30 69 36 103 19z"/>
<path d="M1490 356 l0 -196 30 0 29 0 3 133 3 132 75 -132 c72 -128 76 -133
108 -133 l32 0 0 195 0 195 -30 0 -29 0 -3 -136 -3 -136 -75 133 c-71 125 -78
134 -108 137 l-32 3 0 -195z"/>
</g>
</svg>
